<?xml version="1.0" encoding="utf-8"?>
<!-- Generator: Adobe Illustrator 16.0.0, SVG Export Plug-In . SVG Version: 6.00 Build 0)  -->
<!DOCTYPE svg PUBLIC "-//W3C//DTD SVG 1.1//EN" "http://www.w3.org/Graphics/SVG/1.1/DTD/svg11.dtd">
<svg version="1.1" id="Calque_1" xmlns="http://www.w3.org/2000/svg" xmlns:xlink="http://www.w3.org/1999/xlink" x="0px" y="0px"
	 width="84px" height="200px" viewBox="0 0 84 200" enable-background="new 0 0 84 200" xml:space="preserve">
<g>
	<g>
		<g>
			<defs>
				<filter id="Adobe_OpacityMaskFilter" filterUnits="userSpaceOnUse" x="9.074" y="0" width="75" height="50">
					
						<feColorMatrix  type="matrix" values="-1 0 0 0 1  0 -1 0 0 1  0 0 -1 0 1  0 0 0 1 0" color-interpolation-filters="sRGB" result="source"/>
					<feFlood  style="flood-color:white;flood-opacity:1" result="back"/>
					<feBlend  in="source" in2="back" mode="normal"/>
				</filter>
			</defs>
			<mask maskUnits="userSpaceOnUse" x="9.074" y="0" width="75" height="50" id="SVGID_1_">
				<g filter="url(#Adobe_OpacityMaskFilter)">
					<g opacity="0.5">
						<path fill="#FFFFFF" d="M23.574,8c-1.1,0-2.637,0.637-3.414,1.414l-1.672,1.672c-0.777,0.777-1.414,2.314-1.414,3.414v23
							c0,1.1,0.9,2,2,2h21c1.1,0,2-0.9,2-2V10c0-1.1-0.9-2-2-2H23.574z"/>
					</g>
				</g>
			</mask>
			<g mask="url(#SVGID_1_)">
				<path fill="#F2F2ED" d="M84.074,45c0,2.75-2.25,5-5,5h-65c-2.75,0-5-2.25-5-5V5c0-2.75,2.25-5,5-5h65c2.75,0,5,2.25,5,5V45z"/>
			</g>
		</g>
		<defs>
			<filter id="Adobe_OpacityMaskFilter_1_" filterUnits="userSpaceOnUse" x="4.367" y="-4.707" width="30.914" height="30.914">
				<feColorMatrix  type="matrix" values="1 0 0 0 0  0 1 0 0 0  0 0 1 0 0  0 0 0 1 0"/>
			</filter>
		</defs>
		<mask maskUnits="userSpaceOnUse" x="4.367" y="-4.707" width="30.914" height="30.914" id="SVGID_2_">
			<g filter="url(#Adobe_OpacityMaskFilter_1_)">
				<g>
					<path fill="#F2F2ED" d="M84.074,45c0,2.75-2.25,5-5,5h-65c-2.75,0-5-2.25-5-5V5c0-2.75,2.25-5,5-5h65c2.75,0,5,2.25,5,5V45z"/>
				</g>
			</g>
		</mask>
		<g mask="url(#SVGID_2_)">
			<line fill="none" stroke="#E41E63" stroke-width="2" stroke-miterlimit="10" x1="6.574" y1="16" x2="25.074" y2="-2.5"/>
			<line fill="none" stroke="#196891" stroke-width="2" stroke-miterlimit="10" x1="5.074" y1="25.5" x2="34.574" y2="-4"/>
		</g>
	</g>
	<polygon fill="#72797F" points="5.074,19 0.074,24 5.074,29 	"/>
	<text transform="matrix(1 0 0 1 29.7476 27.6919)" fill="#45494D" font-family="'FiraSansOT-Bold'" font-size="13">40</text>
	<text transform="matrix(0.5 0 0 1 44.3076 27.6919)" fill="#45494D" font-family="'FiraSansOT-Bold'" font-size="13"> </text>
	<text transform="matrix(1 0 0 1 45.8418 27.6919)" fill="#45494D" font-family="'FiraSansOT-Bold'" font-size="13">000</text>
</g>
<g>
	<g>
		<g>
			<defs>
				<filter id="Adobe_OpacityMaskFilter_2_" filterUnits="userSpaceOnUse" x="9.074" y="50" width="75" height="50">
					
						<feColorMatrix  type="matrix" values="-1 0 0 0 1  0 -1 0 0 1  0 0 -1 0 1  0 0 0 1 0" color-interpolation-filters="sRGB" result="source"/>
					<feFlood  style="flood-color:white;flood-opacity:1" result="back"/>
					<feBlend  in="source" in2="back" mode="normal"/>
				</filter>
			</defs>
			<mask maskUnits="userSpaceOnUse" x="9.074" y="50" width="75" height="50" id="SVGID_3_">
				<g filter="url(#Adobe_OpacityMaskFilter_2_)">
					<g opacity="0.5">
						<path fill="#FFFFFF" d="M23.574,58c-1.1,0-2.637,0.637-3.414,1.414l-1.672,1.672c-0.777,0.777-1.414,2.314-1.414,3.414v23
							c0,1.1,0.9,2,2,2h21c1.1,0,2-0.9,2-2V60c0-1.1-0.9-2-2-2H23.574z"/>
					</g>
				</g>
			</mask>
			<g mask="url(#SVGID_3_)">
				<path fill="#F2F2ED" d="M84.074,95c0,2.75-2.25,5-5,5h-65c-2.75,0-5-2.25-5-5V55c0-2.75,2.25-5,5-5h65c2.75,0,5,2.25,5,5V95z"/>
			</g>
		</g>
		<defs>
			<filter id="Adobe_OpacityMaskFilter_3_" filterUnits="userSpaceOnUse" x="4.367" y="45.292" width="30.914" height="30.914">
				<feColorMatrix  type="matrix" values="1 0 0 0 0  0 1 0 0 0  0 0 1 0 0  0 0 0 1 0"/>
			</filter>
		</defs>
		<mask maskUnits="userSpaceOnUse" x="4.367" y="45.292" width="30.914" height="30.914" id="SVGID_4_">
			<g filter="url(#Adobe_OpacityMaskFilter_3_)">
				<g>
					<path fill="#F2F2ED" d="M84.074,95c0,2.75-2.25,5-5,5h-65c-2.75,0-5-2.25-5-5V55c0-2.75,2.25-5,5-5h65c2.75,0,5,2.25,5,5V95z"
						/>
				</g>
			</g>
		</mask>
		<g mask="url(#SVGID_4_)">
			<line fill="none" stroke="#E41E63" stroke-width="2" stroke-miterlimit="10" x1="6.574" y1="66" x2="25.074" y2="47.5"/>
			<line fill="none" stroke="#196891" stroke-width="2" stroke-miterlimit="10" x1="5.074" y1="75.5" x2="34.574" y2="46"/>
		</g>
	</g>
	<polygon fill="#72797F" points="5.074,69 0.074,74 5.074,79 	"/>
	<text transform="matrix(1 0 0 1 29.7476 77.6919)" fill="#45494D" font-family="'FiraSansOT-Bold'" font-size="13">30</text>
	<text transform="matrix(0.5 0 0 1 44.3076 77.6919)" fill="#45494D" font-family="'FiraSansOT-Bold'" font-size="13"> </text>
	<text transform="matrix(1 0 0 1 45.8418 77.6919)" fill="#45494D" font-family="'FiraSansOT-Bold'" font-size="13">000</text>
</g>
<g>
	<g>
		<g>
			<defs>
				<filter id="Adobe_OpacityMaskFilter_4_" filterUnits="userSpaceOnUse" x="9.074" y="100" width="75" height="50">
					
						<feColorMatrix  type="matrix" values="-1 0 0 0 1  0 -1 0 0 1  0 0 -1 0 1  0 0 0 1 0" color-interpolation-filters="sRGB" result="source"/>
					<feFlood  style="flood-color:white;flood-opacity:1" result="back"/>
					<feBlend  in="source" in2="back" mode="normal"/>
				</filter>
			</defs>
			<mask maskUnits="userSpaceOnUse" x="9.074" y="100" width="75" height="50" id="SVGID_5_">
				<g filter="url(#Adobe_OpacityMaskFilter_4_)">
					<g opacity="0.5">
						<path fill="#FFFFFF" d="M23.574,108c-1.1,0-2.637,0.637-3.414,1.414l-1.672,1.672c-0.777,0.777-1.414,2.314-1.414,3.414v23
							c0,1.1,0.9,2,2,2h21c1.1,0,2-0.9,2-2V110c0-1.1-0.9-2-2-2H23.574z"/>
					</g>
				</g>
			</mask>
			<g mask="url(#SVGID_5_)">
				<path fill="#F2F2ED" d="M84.074,145c0,2.75-2.25,5-5,5h-65c-2.75,0-5-2.25-5-5v-40c0-2.75,2.25-5,5-5h65c2.75,0,5,2.25,5,5V145z
					"/>
			</g>
		</g>
		<defs>
			<filter id="Adobe_OpacityMaskFilter_5_" filterUnits="userSpaceOnUse" x="4.367" y="95.292" width="30.914" height="30.914">
				<feColorMatrix  type="matrix" values="1 0 0 0 0  0 1 0 0 0  0 0 1 0 0  0 0 0 1 0"/>
			</filter>
		</defs>
		<mask maskUnits="userSpaceOnUse" x="4.367" y="95.292" width="30.914" height="30.914" id="SVGID_6_">
			<g filter="url(#Adobe_OpacityMaskFilter_5_)">
				<g>
					<path fill="#F2F2ED" d="M84.074,145c0,2.75-2.25,5-5,5h-65c-2.75,0-5-2.25-5-5v-40c0-2.75,2.25-5,5-5h65c2.75,0,5,2.25,5,5V145
						z"/>
				</g>
			</g>
		</mask>
		<g mask="url(#SVGID_6_)">
			<line fill="none" stroke="#E41E63" stroke-width="2" stroke-miterlimit="10" x1="6.574" y1="116" x2="25.074" y2="97.5"/>
			<line fill="none" stroke="#196891" stroke-width="2" stroke-miterlimit="10" x1="5.074" y1="125.5" x2="34.574" y2="96"/>
		</g>
	</g>
	<polygon fill="#72797F" points="5.074,119 0.074,124 5.074,129 	"/>
	<text transform="matrix(1 0 0 1 29.7476 127.6919)" fill="#45494D" font-family="'FiraSansOT-Bold'" font-size="13">20</text>
	<text transform="matrix(0.5 0 0 1 44.3076 127.6919)" fill="#45494D" font-family="'FiraSansOT-Bold'" font-size="13"> </text>
	<text transform="matrix(1 0 0 1 45.8418 127.6919)" fill="#45494D" font-family="'FiraSansOT-Bold'" font-size="13">000</text>
</g>
<g>
	<g>
		<g>
			<defs>
				<filter id="Adobe_OpacityMaskFilter_6_" filterUnits="userSpaceOnUse" x="9.074" y="150" width="75" height="50">
					
						<feColorMatrix  type="matrix" values="-1 0 0 0 1  0 -1 0 0 1  0 0 -1 0 1  0 0 0 1 0" color-interpolation-filters="sRGB" result="source"/>
					<feFlood  style="flood-color:white;flood-opacity:1" result="back"/>
					<feBlend  in="source" in2="back" mode="normal"/>
				</filter>
			</defs>
			<mask maskUnits="userSpaceOnUse" x="9.074" y="150" width="75" height="50" id="SVGID_7_">
				<g filter="url(#Adobe_OpacityMaskFilter_6_)">
					<g opacity="0.5">
						<path fill="#FFFFFF" d="M23.574,158c-1.1,0-2.637,0.637-3.414,1.414l-1.672,1.672c-0.777,0.777-1.414,2.314-1.414,3.414v23
							c0,1.1,0.9,2,2,2h21c1.1,0,2-0.9,2-2V160c0-1.1-0.9-2-2-2H23.574z"/>
					</g>
				</g>
			</mask>
			<g mask="url(#SVGID_7_)">
				<path fill="#F2F2ED" d="M84.074,195c0,2.75-2.25,5-5,5h-65c-2.75,0-5-2.25-5-5v-40c0-2.75,2.25-5,5-5h65c2.75,0,5,2.25,5,5V195z
					"/>
			</g>
		</g>
		<defs>
			<filter id="Adobe_OpacityMaskFilter_7_" filterUnits="userSpaceOnUse" x="4.367" y="145.292" width="30.914" height="30.914">
				<feColorMatrix  type="matrix" values="1 0 0 0 0  0 1 0 0 0  0 0 1 0 0  0 0 0 1 0"/>
			</filter>
		</defs>
		<mask maskUnits="userSpaceOnUse" x="4.367" y="145.292" width="30.914" height="30.914" id="SVGID_8_">
			<g filter="url(#Adobe_OpacityMaskFilter_7_)">
				<g>
					<path fill="#F2F2ED" d="M84.074,195c0,2.75-2.25,5-5,5h-65c-2.75,0-5-2.25-5-5v-40c0-2.75,2.25-5,5-5h65c2.75,0,5,2.25,5,5V195
						z"/>
				</g>
			</g>
		</mask>
		<g mask="url(#SVGID_8_)">
			<line fill="none" stroke="#E41E63" stroke-width="2" stroke-miterlimit="10" x1="6.574" y1="166" x2="25.074" y2="147.5"/>
			<line fill="none" stroke="#196891" stroke-width="2" stroke-miterlimit="10" x1="5.074" y1="175.5" x2="34.574" y2="146"/>
		</g>
	</g>
	<polygon fill="#72797F" points="5.074,169 0.074,174 5.074,179 	"/>
	<text transform="matrix(1 0 0 1 29.7476 177.6919)" fill="#45494D" font-family="'FiraSansOT-Bold'" font-size="13">10</text>
	<text transform="matrix(0.5 0 0 1 44.3076 177.6919)" fill="#45494D" font-family="'FiraSansOT-Bold'" font-size="13"> </text>
	<text transform="matrix(1 0 0 1 45.8418 177.6919)" fill="#45494D" font-family="'FiraSansOT-Bold'" font-size="13">000</text>
</g>
</svg>
