<?xml version="1.0" encoding="utf-8"?>
<!-- Generator: Adobe Illustrator 16.0.0, SVG Export Plug-In . SVG Version: 6.00 Build 0)  -->
<!DOCTYPE svg PUBLIC "-//W3C//DTD SVG 1.1//EN" "http://www.w3.org/Graphics/SVG/1.1/DTD/svg11.dtd">
<svg version="1.1" id="Calque_1" xmlns="http://www.w3.org/2000/svg" xmlns:xlink="http://www.w3.org/1999/xlink" x="0px" y="0px"
	 width="230px" height="74px" viewBox="0 0 230 74" enable-background="new 0 0 230 74" xml:space="preserve">
<g>
	<g>
		<g>
			<path fill="#45494D" d="M19.5,73.5c-9.374,0-17-7.626-17-17s7.626-17,17-17h194c9.374,0,17,7.626,17,17s-7.626,17-17,17H19.5z"/>
			<g>
				<path fill="#72797F" d="M213.5,40c9.113,0,16.5,7.389,16.5,16.5c0,9.113-7.387,16.5-16.5,16.5h-194C10.389,73,3,65.613,3,56.5
					C3,47.389,10.389,40,19.5,40H213.5 M213.5,39h-194C9.851,39,2,46.851,2,56.5S9.851,74,19.5,74h194c9.649,0,17.5-7.851,17.5-17.5
					S223.149,39,213.5,39L213.5,39z"/>
			</g>
		</g>
		<g>
			<text transform="matrix(1 0 0 1 13.5859 62.832)" fill="#4CBFAC" font-family="'FiraSansOTMedium'" font-size="15">1</text>
			<text transform="matrix(0.583 0 0 0.583 21.9858 57.8359)" fill="#4CBFAC" font-family="'FiraSansOTMedium'" font-size="15">ère</text>
			<text transform="matrix(1 0 0 1 35.0068 62.832)" fill="#4CBFAC" font-family="'FiraSansOTMedium'" font-size="15"> demande/renouvellement</text>
		</g>
	</g>
</g>
<g>
	<g>
		<g>
			<g opacity="0.6">
				<path fill="#45494D" d="M19.5,36.5c-9.374,0-17-7.626-17-17s7.626-17,17-17h194c9.374,0,17,7.626,17,17s-7.626,17-17,17H19.5z"
					/>
				<path fill="#45494D" d="M213.5,3c9.113,0,16.5,7.389,16.5,16.5c0,9.113-7.387,16.5-16.5,16.5h-194C10.389,36,3,28.613,3,19.5
					C3,10.389,10.389,3,19.5,3H213.5 M213.5,2h-194C9.851,2,2,9.851,2,19.5S9.851,37,19.5,37h194c9.649,0,17.5-7.851,17.5-17.5
					S223.149,2,213.5,2L213.5,2z"/>
			</g>
			<g>
				<path fill="#72797F" d="M17.5,34.5c-9.374,0-17-7.626-17-17s7.626-17,17-17h194c9.374,0,17,7.626,17,17s-7.626,17-17,17H17.5z"
					/>
				<g>
					<path fill="#A2A4A6" d="M211.5,1c9.113,0,16.5,7.389,16.5,16.5c0,9.113-7.387,16.5-16.5,16.5h-194C8.389,34,1,26.613,1,17.5
						C1,8.389,8.389,1,17.5,1H211.5 M211.5,0h-194C7.851,0,0,7.851,0,17.5S7.851,35,17.5,35h194c9.649,0,17.5-7.851,17.5-17.5
						S221.149,0,211.5,0L211.5,0z"/>
				</g>
			</g>
		</g>
		<g>
			<text transform="matrix(1 0 0 1 11.5859 23.8311)" fill="#FFFFFF" font-family="'FiraSansOTMedium'" font-size="15">1</text>
			<text transform="matrix(0.583 0 0 0.583 19.9858 18.8359)" fill="#FFFFFF" font-family="'FiraSansOTMedium'" font-size="15">ère</text>
			<text transform="matrix(1 0 0 1 33.0068 23.8311)" fill="#FFFFFF" font-family="'FiraSansOTMedium'" font-size="15"> demande/renouvellement</text>
		</g>
	</g>
</g>
</svg>
