<?xml version="1.0" encoding="utf-8"?>
<!-- Generator: Adobe Illustrator 16.0.0, SVG Export Plug-In . SVG Version: 6.00 Build 0)  -->
<!DOCTYPE svg PUBLIC "-//W3C//DTD SVG 1.1//EN" "http://www.w3.org/Graphics/SVG/1.1/DTD/svg11.dtd">
<svg version="1.1" id="Calque_1" xmlns="http://www.w3.org/2000/svg" xmlns:xlink="http://www.w3.org/1999/xlink" x="0px" y="0px"
	 width="183px" height="74px" viewBox="0 0 183 74" enable-background="new 0 0 183 74" xml:space="preserve">
<g>
	<g>
		<g>
			<g opacity="0.6">
				<path fill="#45494D" d="M19.424,36.5c-9.374,0-17-7.626-17-17s7.626-17,17-17h146c9.374,0,17,7.626,17,17s-7.626,17-17,17
					H19.424z"/>
				<path fill="#45494D" d="M165.424,3c9.113,0,16.5,7.389,16.5,16.5c0,9.113-7.387,16.5-16.5,16.5h-146
					c-9.111,0-16.5-7.387-16.5-16.5c0-9.111,7.389-16.5,16.5-16.5H165.424 M165.424,2h-146c-9.649,0-17.5,7.851-17.5,17.5
					S9.774,37,19.424,37h146c9.649,0,17.5-7.851,17.5-17.5S175.073,2,165.424,2L165.424,2z"/>
			</g>
			<g>
				<path fill="#72797F" d="M17.424,34.5c-9.374,0-17-7.626-17-17s7.626-17,17-17h146c9.374,0,17,7.626,17,17s-7.626,17-17,17
					H17.424z"/>
				<g>
					<path fill="#A2A4A6" d="M163.424,1c9.113,0,16.5,7.389,16.5,16.5c0,9.113-7.387,16.5-16.5,16.5h-146
						c-9.111,0-16.5-7.387-16.5-16.5c0-9.111,7.389-16.5,16.5-16.5H163.424 M163.424,0h-146c-9.649,0-17.5,7.851-17.5,17.5
						S7.774,35,17.424,35h146c9.649,0,17.5-7.851,17.5-17.5S173.073,0,163.424,0L163.424,0z"/>
				</g>
			</g>
		</g>
		<g>
			<text transform="matrix(1 0 0 1 19.6772 23.8315)" fill="#FFFFFF" font-family="'FiraSansOTMedium'" font-size="15">Tous les journalistes</text>
		</g>
	</g>
</g>
<g>
	<g>
		<g>
			<path fill="#45494D" d="M19.5,73.5c-9.374,0-17-7.626-17-17s7.626-17,17-17h146c9.374,0,17,7.626,17,17s-7.626,17-17,17H19.5z"/>
			<g>
				<path fill="#72797F" d="M165.5,40c9.113,0,16.5,7.389,16.5,16.5c0,9.113-7.387,16.5-16.5,16.5h-146C10.389,73,3,65.613,3,56.5
					C3,47.389,10.389,40,19.5,40H165.5 M165.5,39h-146C9.851,39,2,46.851,2,56.5S9.851,74,19.5,74h146c9.649,0,17.5-7.851,17.5-17.5
					S175.149,39,165.5,39L165.5,39z"/>
			</g>
		</g>
		<g>
			<text transform="matrix(1 0 0 1 21.7534 62.8311)" fill="#82D2C5" font-family="'FiraSansOTMedium'" font-size="15">Tous les journalistes</text>
		</g>
	</g>
</g>
</svg>
