<?xml version="1.0" encoding="utf-8"?>
<!-- Generator: Adobe Illustrator 16.0.0, SVG Export Plug-In . SVG Version: 6.00 Build 0)  -->
<!DOCTYPE svg PUBLIC "-//W3C//DTD SVG 1.1//EN" "http://www.w3.org/Graphics/SVG/1.1/DTD/svg11.dtd">
<svg version="1.1" id="Calque_1" xmlns="http://www.w3.org/2000/svg" xmlns:xlink="http://www.w3.org/1999/xlink" x="0px" y="0px"
	 width="58px" height="19px" viewBox="0 0 58 19" enable-background="new 0 0 58 19" xml:space="preserve">
<g>
	<g opacity="0.6">
		<path fill="#45494D" d="M10.5,18.5c-4.411,0-8-3.588-8-8c0-4.411,3.589-8,8-8s8,3.589,8,8C18.5,14.912,14.911,18.5,10.5,18.5z"/>
		<path fill="#45494D" d="M10.5,3c4.143,0,7.5,3.358,7.5,7.5c0,4.143-3.357,7.5-7.5,7.5S3,14.643,3,10.5C3,6.359,6.357,3,10.5,3
			 M10.5,2C5.813,2,2,5.813,2,10.5c0,4.688,3.813,8.5,8.5,8.5c4.687,0,8.5-3.812,8.5-8.5C19,5.813,15.187,2,10.5,2L10.5,2z"/>
		<circle fill="#45494D" cx="10.5" cy="10.5" r="2.5"/>
	</g>
	<g>
		<g>
			<g>
				<path fill="#4CBFAC" d="M8.5,16.5c-4.411,0-8-3.588-8-8c0-4.411,3.589-8,8-8s8,3.589,8,8C16.5,12.912,12.911,16.5,8.5,16.5z"/>
				<path fill="#FFFFFF" d="M8.5,1C12.643,1,16,4.359,16,8.5c0,4.143-3.357,7.5-7.5,7.5S1,12.643,1,8.5C1,4.359,4.357,1,8.5,1
					 M8.5,0C3.813,0,0,3.813,0,8.5C0,13.188,3.813,17,8.5,17c4.687,0,8.5-3.812,8.5-8.5C17,3.813,13.187,0,8.5,0L8.5,0z"/>
			</g>
			<circle fill="#F2F2ED" cx="8.5" cy="8.5" r="2.5"/>
		</g>
	</g>
</g>
<g>
	<g opacity="0.6">
		<path fill="#45494D" d="M29.5,18.5c-4.411,0-8-3.588-8-8c0-4.411,3.589-8,8-8s8,3.589,8,8C37.5,14.912,33.911,18.5,29.5,18.5z"/>
		<path fill="#45494D" d="M29.5,3c4.143,0,7.5,3.358,7.5,7.5c0,4.143-3.357,7.5-7.5,7.5S22,14.643,22,10.5C22,6.358,25.357,3,29.5,3
			 M29.5,2C24.812,2,21,5.813,21,10.5c0,4.688,3.812,8.5,8.5,8.5c4.687,0,8.5-3.812,8.5-8.5C38,5.813,34.187,2,29.5,2L29.5,2z"/>
		<circle fill="#45494D" cx="29.5" cy="10.5" r="2.5"/>
	</g>
	<g>
		<g>
			<g>
				<path fill="#BDCC35" d="M27.5,16.5c-4.411,0-8-3.588-8-8c0-4.411,3.589-8,8-8s8,3.589,8,8C35.5,12.912,31.911,16.5,27.5,16.5z"
					/>
				<path fill="#FFFFFF" d="M27.5,1C31.643,1,35,4.358,35,8.5c0,4.143-3.357,7.5-7.5,7.5S20,12.643,20,8.5C20,4.358,23.357,1,27.5,1
					 M27.5,0C22.812,0,19,3.813,19,8.5c0,4.688,3.812,8.5,8.5,8.5c4.687,0,8.5-3.812,8.5-8.5C36,3.813,32.187,0,27.5,0L27.5,0z"/>
			</g>
			<circle fill="#F2F2ED" cx="27.5" cy="8.5" r="2.5"/>
		</g>
	</g>
</g>
<g>
	<g opacity="0.6">
		<path fill="#45494D" d="M49,18.5c-4.411,0-8-3.589-8-8s3.589-8,8-8s8,3.589,8,8S53.411,18.5,49,18.5z"/>
		<path fill="#45494D" d="M49,3c4.143,0,7.5,3.358,7.5,7.5S53.143,18,49,18s-7.5-3.358-7.5-7.5S44.857,3,49,3 M49,2
			c-4.688,0-8.5,3.813-8.5,8.5S44.312,19,49,19c4.687,0,8.5-3.813,8.5-8.5S53.687,2,49,2L49,2z"/>
		<circle fill="#45494D" cx="49" cy="10.5" r="2.5"/>
	</g>
	<g>
		<g>
			<g>
				<path fill="#EBAF17" d="M47,16.5c-4.411,0-8-3.589-8-8s3.589-8,8-8s8,3.589,8,8S51.411,16.5,47,16.5z"/>
				<path fill="#FFFFFF" d="M47,1c4.143,0,7.5,3.358,7.5,7.5S51.143,16,47,16s-7.5-3.358-7.5-7.5S42.857,1,47,1 M47,0
					c-4.688,0-8.5,3.813-8.5,8.5S42.312,17,47,17c4.687,0,8.5-3.813,8.5-8.5S51.687,0,47,0L47,0z"/>
			</g>
			<circle fill="#F2F2ED" cx="47" cy="8.5" r="2.5"/>
		</g>
	</g>
</g>
</svg>
